# xmcd CD database file
#
# Track frame offsets:
#	150
#	11059
#	24617
#	36872
#	48095
#	58807
#	72845
#	88727
#	104907
#	121720
#	134517
#	149685
#	165375
#	181562
#	201607
#	217120
#	230925
#	245927
#	260542
#	272730
#	281325
#	293032
#	302607
#	315565
#
# Disc length: 4384 seconds
#
# Revision: 3
# Processed by: cddbd v1.5PL3 Copyright (c) Steve Scherf et al.
# Submitted via: CDex 1.51
#
DISCID=78111e18
DTITLE=Frank Sinatra - The Complete Reprise Studio Recordings - CD9
DYEAR=1995
DGENRE=Jazz
TTITLE0=Pass Me By
TTITLE1=Emily
TTITLE2=Dear Heart
TTITLE3=Somewhere In Your Heart
TTITLE4=Any Time At All
TTITLE5=Don't Wait Too Long
TTITLE6=September Song
TTITLE7=Last Night When We Were Young
TTITLE8=Hello, Young Lovers
TTITLE9=I See It Now
TTITLE10=When The Wind Was Green
TTITLE11=Once Upon A Time
TTITLE12=How Old Am I?
TTITLE13=It Was A Very Good Year
TTITLE14=The Man In The Looking Glass
TTITLE15=This Is All I Ask
TTITLE16=It Gets Lonely Early
TTITLE17=The September Of My Years
TTITLE18=Tell Her (You Love Her Each Day)
TTITLE19=When Somebody Loves You
TTITLE20=Forget Domani
TTITLE21=Ev'rybody Has The Right To Be Wrong! (At Least Once)
TTITLE22=I'll Only Miss Her When I Think Of Her
TTITLE23=Golden Moment
EXTD=YEAR: 1995
EXTT0=
EXTT1=
EXTT2=
EXTT3=
EXTT4=
EXTT5=
EXTT6=
EXTT7=
EXTT8=
EXTT9=
EXTT10=
EXTT11=
EXTT12=
EXTT13=
EXTT14=
EXTT15=
EXTT16=
EXTT17=
EXTT18=
EXTT19=
EXTT20=
EXTT21=
EXTT22=
EXTT23=
PLAYORDER=
